<svg width="300" height="300" viewBox="0 0 376 376" fill="none" xmlns="http://www.w3.org/2000/svg">
<circle cx="167" cy="208" r="84.5" stroke="#F6A967"/>
<path d="M81.2322 106.091C78.9476 108.048 76.7351 109.072 74.5947 109.164C72.4404 109.24 70.5792 108.362 69.0111 106.531L64.5147 101.281L68.3791 97.9715L72.8754 103.221C74.1521 104.712 75.9328 104.479 78.2173 102.522C79.3029 101.592 80.2613 100.547 81.0924 99.3855L75.0141 92.2887L78.8784 88.9789L93.4498 105.992L89.5854 109.302L84.1524 102.958C83.356 104.062 82.3826 105.106 81.2322 106.091Z" fill="black"/>
<path d="M99.6527 102.053L95.5807 104.472L84.1421 85.2124L88.5167 82.6142L95.625 94.5824L97.3209 77.3851L101.393 74.9666L112.831 94.2258L108.457 96.824L101.398 84.9383L99.6527 102.053Z" fill="black"/>
<path d="M114.474 74.6157L108.022 77.0932L106.347 72.7317L123.972 65.9643L125.647 70.3258L119.194 72.8034L125.549 89.3534L120.829 91.1657L114.474 74.6157Z" fill="black"/>
<path d="M137.338 85.7023L132.129 86.7406L137.008 62.9275L141.119 62.1081L154.724 82.2369L149.546 83.269L147.302 79.8661L138.106 81.6989L137.338 85.7023ZM144.593 75.7726L140.487 69.5758L139.07 76.8735L144.593 75.7726Z" fill="black"/>
<path d="M160.735 82.2363L155.999 82.3223L155.592 59.926L160.68 59.8336L160.932 73.7513L170.918 59.6476L175.653 59.5615L176.06 81.9578L170.973 82.0503L170.722 68.2285L160.735 82.2363ZM159.716 52.6179L163.3 52.5528C163.311 53.1927 163.545 53.7218 164.001 54.1403C164.478 54.5584 165.057 54.7612 165.74 54.7488C166.401 54.7368 166.941 54.5136 167.36 54.0793C167.8 53.6445 168.015 53.1072 168.003 52.4673L171.586 52.4022C171.615 54.002 171.075 55.3773 169.965 56.5283C168.876 57.6577 167.489 58.2376 165.804 58.2682C164.076 58.2996 162.637 57.771 161.486 56.6824C160.335 55.5725 159.745 54.2176 159.716 52.6179Z" fill="black"/>
<path d="M187.118 65.7008L180.283 64.6734L180.977 60.0533L199.647 62.8598L198.953 67.4799L192.118 66.4524L189.483 83.9834L184.483 83.2319L187.118 65.7008Z" fill="black"/>
<path d="M204.495 64.1664L220.484 69.1087L219.105 73.5724L207.976 70.1326L206.766 74.0459L216.122 76.9376L214.742 81.4012L205.387 78.5096L204.12 82.6063L215.402 86.0933L214.022 90.557L197.88 85.5674L204.495 64.1664Z" fill="black"/>
<path d="M226.777 96.7493L222.686 94.3619L233.978 75.0163L238.373 77.5812L231.355 89.6031L247.216 82.7433L251.306 85.1308L240.014 104.476L235.62 101.911L242.589 89.9724L226.777 96.7493Z" fill="black"/>
<path d="M251.007 113.635L247.327 110.122L262.796 93.9202L266.476 97.4337L260.443 103.752L267.456 110.448L273.489 104.129L277.146 107.621L261.677 123.822L258.021 120.331L264.23 113.827L257.217 107.132L251.007 113.635Z" fill="black"/>
<path d="M265.737 129.026L262.601 124.738L286.255 119.136L288.729 122.52L276.201 143.336L273.084 139.074L275.226 135.605L269.691 128.037L265.737 129.026ZM277.798 131.425L281.69 125.091L274.474 126.879L277.798 131.425Z" fill="black"/>
<path d="M301.984 144.519C303.021 146.671 303.419 148.848 303.177 151.048C302.953 153.287 302.166 155.241 300.815 156.91L297.033 153.262C297.724 152.29 298.122 151.222 298.225 150.06C298.347 148.888 298.139 147.745 297.602 146.63C296.806 144.977 295.553 143.876 293.844 143.326C292.173 142.757 290.463 142.895 288.714 143.737C286.984 144.57 285.802 145.827 285.166 147.506C284.55 149.177 284.64 150.838 285.437 152.491C285.974 153.606 286.729 154.485 287.702 155.129C288.695 155.764 289.787 156.114 290.979 156.179L291.474 161.41C289.327 161.427 287.299 160.829 285.389 159.618C283.537 158.427 282.092 156.755 281.055 154.602C279.61 151.604 279.397 148.605 280.414 145.605C281.421 142.633 283.424 140.425 286.422 138.98C289.42 137.536 292.395 137.346 295.347 138.41C298.327 139.484 300.54 141.52 301.984 144.519Z" fill="black"/>
<path d="M286.229 165.121L285.959 164.133L290.466 162.903L290.736 163.89C290.995 164.837 291.649 165.41 292.698 165.61C293.774 165.825 295.578 165.587 298.109 164.896L308.605 162.03L313.039 178.268L291.43 184.168L290.09 179.259L307.192 174.59L305.43 168.138L299.441 169.773C295.737 170.785 292.773 170.864 290.55 170.012C288.333 169.18 286.892 167.549 286.229 165.121Z" fill="black"/>
<path d="M292.157 190.231L291.675 184.941L314.839 192.309L315.22 196.484L293.766 207.886L293.287 202.628L296.908 200.756L296.057 191.418L292.157 190.231ZM301.264 198.495L307.861 195.066L300.753 192.886L301.264 198.495Z" fill="black"/>
<path d="M293.491 212.957L294.242 206.73L304.558 216.871L316.404 210.048L315.653 216.275L305.783 221.95L314.837 223.042L314.228 228.093L305.269 227.013L313.42 234.797L312.669 241.023L302.784 231.58L290.353 238.977L291.104 232.75L301.52 226.561L291.989 225.411L292.598 220.36L302.193 221.517L293.491 212.957Z" fill="black"/>
<path d="M288.21 243.512L283.089 241.676L284.806 236.887L294.325 240.299L293.429 242.8C293.526 244.172 295.432 245.524 299.147 246.856L309.479 250.56L303.723 266.615L287.035 260.632L285.89 263.825L276.371 260.412L278.078 255.653L283.199 257.489L288.21 243.512ZM291.474 248.252L288.741 255.873L301.031 260.279L303.364 253.773L297.611 251.71C294.88 250.731 292.834 249.578 291.474 248.252Z" fill="black"/>
<path d="M278.741 266.527L281.454 261.96L295.893 281.515L293.752 285.119L269.689 281.769L272.385 277.229L276.416 277.837L281.204 269.776L278.741 266.527ZM281.27 278.562L288.624 279.654L284.146 273.719L281.27 278.562Z" fill="black"/>
<path d="M265.945 285.907L269.04 282.322L285.997 296.959L282.672 300.81L272.135 291.715L275.981 308.562L272.886 312.147L255.93 297.51L259.254 293.659L269.719 302.692L265.945 285.907ZM288.69 304.906L286.348 307.619C285.864 307.201 285.314 307.022 284.698 307.082C284.068 307.159 283.531 307.455 283.084 307.972C282.652 308.473 282.458 309.024 282.503 309.626C282.533 310.244 282.79 310.762 283.275 311.18L280.933 313.893C279.722 312.848 279.057 311.528 278.94 309.933C278.825 308.368 279.319 306.948 280.42 305.672C281.549 304.364 282.903 303.645 284.481 303.514C286.076 303.396 287.479 303.861 288.69 304.906Z" fill="black"/>
<path d="M260.343 316.91L265.678 312.515L268.648 316.122L254.075 328.125L251.105 324.519L256.44 320.124L245.169 306.44L249.072 303.226L260.343 316.91Z" fill="black"/>
<path d="M249.943 330.852L235.554 339.398L233.168 335.381L243.183 329.433L241.091 325.911L232.672 330.911L230.286 326.895L238.705 321.894L236.515 318.207L226.363 324.237L223.977 320.22L238.504 311.592L249.943 330.852Z" fill="black"/>
<path d="M220.192 346.392C217.961 347.249 215.759 347.466 213.586 347.043C211.373 346.636 209.49 345.691 207.938 344.207L211.885 340.738C212.797 341.508 213.829 341.991 214.979 342.19C216.137 342.408 217.293 342.295 218.448 341.852C220.161 341.194 221.362 340.036 222.05 338.378C222.754 336.759 222.758 335.044 222.062 333.231C221.374 331.439 220.219 330.157 218.598 329.386C216.984 328.634 215.32 328.587 213.608 329.245C212.453 329.688 211.514 330.369 210.792 331.286C210.078 332.223 209.639 333.282 209.476 334.465L204.222 334.528C204.382 332.387 205.145 330.415 206.509 328.611C207.849 326.863 209.634 325.561 211.864 324.704C214.971 323.511 217.978 323.545 220.884 324.806C223.763 326.054 225.799 328.232 226.992 331.339C228.184 334.446 228.129 337.426 226.826 340.28C225.51 343.162 223.298 345.199 220.192 346.392Z" fill="black"/>
<path d="M200.68 329.076L204.978 351.06L199.985 352.036L198.548 344.687L193.523 345.67C191.262 346.112 189.261 345.775 187.522 344.659C185.736 343.53 184.642 341.939 184.241 339.887C183.836 337.815 184.248 335.919 185.477 334.201C186.672 332.532 188.401 331.477 190.662 331.035L200.68 329.076ZM197.652 340.102L196.583 334.638L191.558 335.62C190.846 335.759 190.284 336.108 189.872 336.667C189.439 337.23 189.26 337.874 189.336 338.598C189.512 339.498 189.894 340.173 190.482 340.624C191.074 341.095 191.789 341.248 192.627 341.085L197.652 340.102Z" fill="black"/>
</svg>
