<?xml version="1.0" standalone="no"?>
<!DOCTYPE svg PUBLIC "-//W3C//DTD SVG 1.1//EN" "http://www.w3.org/Graphics/SVG/1.1/DTD/svg11.dtd" >
<svg xmlns="http://www.w3.org/2000/svg" xmlns:xlink="http://www.w3.org/1999/xlink" version="1.1">
<metadata>
Created by FontForge 20190801 at Mon Sep  2 14:22:24 2013
 By www-data
Copyright (c) 2013 by Alex Chopjian. 
</metadata>
<defs>
<font id="Miami" horiz-adv-x="484" >
  <font-face 
    font-family="Miami"
    font-weight="400"
    font-stretch="normal"
    units-per-em="1000"
    panose-1="2 0 0 0 0 0 0 0 0 0"
    ascent="750"
    descent="-250"
    x-height="518"
    cap-height="773"
    bbox="-278 -274 921 836"
    underline-thickness="50"
    underline-position="-100"
    unicode-range="U+000D-20AC"
  />
<missing-glyph horiz-adv-x="500" 
 />
    <glyph glyph-name=".notdef" horiz-adv-x="500" 
 />
    <glyph glyph-name=".null" horiz-adv-x="0" 
 />
    <glyph glyph-name="nonmarkingreturn" unicode="&#xd;" horiz-adv-x="268" 
 />
    <glyph glyph-name="NULL" horiz-adv-x="0" 
 />
    <glyph glyph-name="NULL" horiz-adv-x="0" 
 />
    <glyph glyph-name="space" unicode=" " horiz-adv-x="268" 
 />
    <glyph glyph-name="exclam" unicode="!" horiz-adv-x="240" 
d="M137 177h-91l193 595h90h1zM31 94h78l-32 -94h-77h-1z" />
    <glyph glyph-name="quotedbl" unicode="&#x22;" horiz-adv-x="351" 
d="M288 781l-38 -109l-76 -83l-15 83l36 109h93zM443 781l-38 -109l-76 -83l-15 83l36 109h93z" />
    <glyph glyph-name="numbersign" unicode="#" horiz-adv-x="868" 
d="M876 445h-129l-35 -107h138l-45 -135h-138l-69 -206h-137h-1l68 206h-150l-69 -206h-137h-1l69 206h-118l45 135h118l35 107h-127l46 135h127l67 202h137h1l-67 -202h151l67 202h137h1l-67 -202h128zM574 338l35 107h-150l-35 -107h150z" />
    <glyph glyph-name="dollar" unicode="$" horiz-adv-x="496" 
d="M470 623q1 3 1.5 9.5t-1 12.5t-5 10.5t-10.5 4.5h-8l-78 -233h123q7 0 13 -2q13 -4 20 -11q7 -9 4 -21q-2 -6 -5 -12l-84 -250q-6 -23 -14 -43q-7 -17 -17.5 -34t-23.5 -26q-42 -26 -81.5 -32t-80.5 -7l-18 -56h-92l18 57q-23 1 -45.5 4t-40.5 11t-30.5 21.5t-15.5 34.5
q-1 9 0 21t2.5 24t3.5 21.5t3 13.5h140q-1 -3 -2 -9.5t-0.5 -13t4.5 -12t12 -5.5h6l72 217h-118q-8 0 -14 1q-14 2 -21 9q-3 4 -3.5 10.5t1.5 12.5q1 7 4 15l28 86q0 2 0.5 2.5t0.5 1.5v1l13 38h1l45 134q6 22 14 42q7 17 17 34.5t24 26.5q41 26 80.5 33t78.5 7l22 64h91h1
l-21 -64q23 -1 45.5 -4.5t41 -11t31.5 -21t16 -34.5q1 -9 0.5 -20.5t-2 -22.5t-3.5 -20.5t-3 -14.5h-140zM276 427l78 233q-11 -1 -17.5 -6t-11.5 -10q-5 -7 -8 -15l-13 -38l-50 -150q0 -5 3 -9.5t13 -4.5h6zM333 318l-73 -217q12 0 19.5 5t12.5 10q5 6 8 15l13 38l41 125
q1 3 1 6q0 6 -5 12q-2 2 -4 3l-4 2q-3 1 -4 1h-5z" />
    <glyph glyph-name="percent" unicode="%" horiz-adv-x="724" 
d="M751 784l-568 -784h-105l586 784h87zM468 710q-3 20 -17.5 30t-35 14t-43 4h-40.5q-30 0 -60 -3.5t-60 -23.5q-9 -6 -16 -17.5t-12 -22.5q-5 -13 -9 -29l-44 -128l-8 -26q-3 -9 -5 -17t-2.5 -15.5t1.5 -15.5q3 -20 17.5 -30t34.5 -14t42.5 -4h40.5q30 0 60 3t60 23
q8 5 14 14.5t10.5 19.5t7.5 18.5t4 13.5l50 146l4 12q2 8 4 17q3 17 2 31zM314 504q-2 -5 -7.5 -11t-17.5 -6h-65q-11 0 -11 10q0 4 2 11l44 129l9 25q2 6 6 10q3 4 8 7.5t13 3.5h65q7 0 9 -3.5t2 -7.5t-3 -10l-3 -12zM732 321q-3 20 -17.5 30.5t-35 14.5t-43 4h-40.5
q-29 0 -59.5 -3.5t-60.5 -23.5q-9 -6 -15.5 -18t-11.5 -23q-5 -14 -10 -29l-44 -128l-8 -26q-2 -9 -4 -17t-3 -15.5t0 -15.5q3 -20 17.5 -30t35 -14t43 -4h40.5q30 0 60 3.5t61 23.5q7 5 13 14t10.5 19t7.5 18.5t5 13.5l49 146l4 12q2 8 4 17q3 17 2 31zM579 115
q-2 -5 -8 -10.5t-18 -5.5h-64q-12 0 -12 10q0 4 2 10l45 128l8 26q2 6 6 10q3 4 8 7.5t13 3.5h65q7 0 9 -3.5t2 -7.5t-2 -10l-4 -12z" />
    <glyph glyph-name="ampersand" unicode="&#x26;" horiz-adv-x="613" 
d="M537 771q20 -2 43.5 -7.5t46 -17.5t41 -32t27.5 -51t6.5 -75t-21.5 -104q-25 -78 -65.5 -113.5t-82.5 -45t-77.5 -3t-51.5 12.5l-68 -205q1 0 12 -1.5t27 -2t34 0t33 3.5q9 2 18.5 8.5t17.5 14.5q9 9 17 20l1 -173q-83 -1 -153 -1h-59h-53.5t-41.5 0.5t-23 1.5
q-20 2 -43.5 7.5t-46 17.5t-41 32t-27.5 51.5t-6.5 75t21.5 103.5q17 52 41 84.5t51.5 50.5t56 24t53.5 5t44.5 -6t30.5 -8l110 333q27 1 52 1h42.5t33.5 -1zM121 242q-16 -44 -11 -69t19.5 -37.5t33 -15.5t29.5 -3l67 201q-10 3 -27.5 5.5t-38 -3.5t-40 -23.5t-32.5 -54.5z
M582 530q15 44 10 69t-19.5 37.5t-33 15.5t-29.5 3l-67 -200q10 -3 28 -6t38 3t40 23.5t33 54.5z" />
    <glyph glyph-name="quotesingle" unicode="'" horiz-adv-x="175" 
d="M195 781h93l-38 -109l-76 -83l-15 83v0v0z" />
    <glyph glyph-name="parenleft" unicode="(" horiz-adv-x="243" 
d="M149 0q-25 0 -49.5 2.5t-45.5 10t-35 21t-18 36.5q-2 11 -0.5 23t3.5 23q3 12 7 25l12 38l151 453q6 23 14 42q7 17 16.5 33.5t23.5 26.5q44 29 87.5 33.5t88.5 4.5h2l-36 -110h-20q-12 0 -19.5 -5t-12.5 -10q-5 -7 -8 -15l-12 -38l-152 -453q-3 -9 -3 -16q0 -6 3 -10.5
t13 -4.5h26z" />
    <glyph glyph-name="parenright" unicode=")" horiz-adv-x="284" 
d="M255 773q24 0 49 -2.5t45.5 -10t35 -21t17.5 -36.5q2 -11 0.5 -23t-3.5 -23l-6 -24l-12 -38l-151 -453q-6 -23 -14 -42q-7 -17 -17 -34t-24 -25q-44 -29 -87 -34t-88 -5h-2l36 110h20q12 0 19.5 4.5t12.5 10.5t8 15l12 38l151 453q3 8 3 15q0 5 -3 10t-13 5h-26z" />
    <glyph glyph-name="asterisk" unicode="*" horiz-adv-x="323" 
d="M443 713l-80 -39l80 -40l-20 -33l-70 53l5 -87h-38l10 86l-69 -52l-19 33l79 40l-79 39l19 33l71 -53l-6 88h38l-10 -87l69 52z" />
    <glyph glyph-name="plus" unicode="+" horiz-adv-x="655" 
d="M701 440l-61 -185h-162l-59 -176h-188h-1l58 176h-162l62 185h162l59 176h188h1l-59 -176h162z" />
    <glyph glyph-name="comma" unicode="," horiz-adv-x="130" 
d="M37 111h93l-37 -111l-28 -85l-16 85h-48h-1z" />
    <glyph glyph-name="hyphen" unicode="-" horiz-adv-x="518" 
d="M516 271h-442l53 160h443z" />
    <glyph glyph-name="period" unicode="." horiz-adv-x="163" 
d="M36 112h92l-37 -111h-92h-1z" />
    <glyph glyph-name="slash" unicode="/" horiz-adv-x="483" 
d="M679 781l-573 -780h-105l585 780h85h8z" />
    <glyph glyph-name="zero" unicode="0" horiz-adv-x="489" 
d="M603 703q2 -11 0.5 -23t-3.5 -23q-3 -12 -6 -25l-12 -37l-152 -454q-6 -22 -14 -42q-7 -17 -17 -34.5t-23 -25.5q-45 -29 -88 -34t-88 -5h-60t-62 6t-51 20.5t-26 43.5q-2 11 -0.5 23t3.5 23q3 12 6 25l13 37l151 454q6 22 14 42q7 17 16.5 34t23.5 26q45 29 88.5 34
t87.5 5h60t62.5 -6t51 -20.5t25.5 -43.5zM409 488l-256 -329l-7 -18q-3 -9 -3 -16q0 -6 3.5 -10.5t13.5 -4.5h94q12 0 19.5 4.5t12.5 10.5q5 7 8 16l13 37zM458 632q3 8 3 15q0 6 -3 11t-13 5h-94q-12 0 -20 -5t-13 -11q-5 -7 -8 -15l-12 -37l-94 -283l248 302z" />
    <glyph glyph-name="one" unicode="1" horiz-adv-x="257" 
d="M395 775l-257 -776h-136h-1l258 776h135h1z" />
    <glyph glyph-name="two" unicode="2" horiz-adv-x="496" 
d="M609 702q2 -11 0.5 -23t-3.5 -23l-6 -24l-13 -37l-91 -270h-287l-61 -184q-4 -9 -4 -15t3 -10.5t13 -4.5h28h237q-7 -19 -18.5 -39.5t-27.5 -31.5q-45 -30 -89 -35t-89 -5h-60.5t-63 6t-51.5 21t-26 44q-2 11 -0.5 23t3.5 23l6 24l13 38l86 254h159h94q11 0 19.5 4.5
t13.5 10.5q6 6 9 15l15 37l44 132q3 8 3 15q0 5 -3 10t-13 5h-96h-1h-167q7 19 18 40t27 31q45 29 89 34t89 5h60.5t63.5 -6t51.5 -20.5t25.5 -43.5z" />
    <glyph glyph-name="three" unicode="3" horiz-adv-x="493" 
d="M612 704q2 -11 0.5 -23t-3.5 -23q-3 -12 -6 -25l-13 -37l-152 -454q-7 -23 -15 -42q-8 -17 -17.5 -34t-22.5 -26q-23 -14 -45 -22t-44.5 -11.5t-45 -4t-44.5 -0.5h-60.5t-63.5 6t-52 20.5t-26 43.5q-2 16 1.5 34.5t6.5 27.5h137q-1 -6 1 -14t15 -8h96q12 0 19.5 4.5
t12.5 10.5t8 15l13 38l49 145q-13 -1 -26 -1h-25h-36h-86l37 109h119h8q3 0 6 0.5t5 0.5q11 0 19.5 4.5t13.5 10.5q6 6 10 15l14 37l45 132q3 8 3 15q0 6 -3 11t-13 5h-95q-12 0 -20 -4.5t-12.5 -10t-6.5 -10.5l-2 -5h-138q0 1 4 13.5t11 29t17 32.5t23 25q45 29 89 34t90 5
h60t63 -5.5t51.5 -20t25.5 -43.5z" />
    <glyph glyph-name="four" unicode="4" horiz-adv-x="576" 
d="M407 269h-256l-8 2q-8 2 -13 8q-10 9 -10 17q-1 4 1 8l31 98q0 2 0.5 2.5t0.5 1.5v2l13 40l106 320v2q0 2 1 5h143l-122 -364l-2 -16q0 -6 4 -10.5t13 -4.5q12 0 25.5 0.5l27 1t26 0.5h20.5q12 0 20.5 5.5t13.5 11.5q6 7 10 16l13 40l1 2l111 318h138l-12 -37l-211 -658
l-27 -81h-139z" />
    <glyph glyph-name="five" unicode="5" horiz-adv-x="488" 
d="M485 433q6 -1 12 -3q5 -2 10.5 -4t9.5 -6q4 -5 4.5 -10.5t-0.5 -10.5q-1 -6 -4 -13l-83 -245q-6 -23 -14 -42q-7 -17 -17.5 -34t-23.5 -25q-45 -30 -89 -35t-89 -5h-60.5t-63.5 6t-51.5 20.5t-25.5 43.5q-2 9 -1 21.5t2.5 24.5t3.5 21.5t3 12.5h138q-1 -3 -2 -9.5
t-0.5 -13t4.5 -12t12 -5.5h96q11 0 19 4.5t13 10.5q5 7 8 16l13 38l41 121q1 2 1 6q0 5 -5 13q-2 2 -4 2.5t-4 1.5t-4 1h-213q-8 0 -14 1q-14 2 -21 10q-3 3 -3.5 9.5t1.5 12.5q1 7 4 15l134 401h186h60.5t63 -6t51 -21t26.5 -44q2 -8 1.5 -18t-2.5 -21h-159h-34h-62
q-12 0 -19.5 -5t-12.5 -11q-5 -7 -9 -15l-12 -38l-50 -147q0 -6 3 -10t13 -4h95h124z" />
    <glyph glyph-name="six" unicode="6" horiz-adv-x="487" 
d="M471 457q6 0 13 -1q5 -1 12 -2.5t12 -5.5q13 -9 15 -22q1 -6 -1 -12l-91 -273q-6 -22 -14 -42q-7 -17 -17.5 -34.5t-23.5 -25.5q-44 -29 -87.5 -34t-88.5 -5h-60t-62.5 6t-51 20.5t-25.5 43.5q-2 11 -0.5 23t3.5 23q3 12 6 25l12 37l152 455q6 22 14 42q7 17 17 34t24 26
q44 29 87.5 34t88.5 5h59.5t62 -6t51 -20.5t26.5 -44.5q2 -8 0.5 -18.5t-3.5 -20.5h-156h-70h-24q-12 0 -20 -5t-13 -11q-5 -7 -8 -15l-12 -37l-46 -138l123 -1h96zM356 329h-147l-62 -188q-4 -9 -4 -16q0 -6 3 -10.5t13 -4.5h95q11 0 19 4.5t13 10.5q5 7 8 16l12 37z" />
    <glyph glyph-name="seven" unicode="7" horiz-adv-x="421" 
d="M285 664q-17 0 -25.5 -8.5t-11.5 -15.5h-138q2 7 6.5 20.5t11.5 27.5t15.5 27t19.5 20q44 29 88 34t89 5h60t62.5 -6t51 -20.5t25.5 -44.5q2 -11 0.5 -23t-3.5 -23l-6 -24l-13 -38l-152 -455q-11 -35 -20 -64q-8 -25 -15.5 -47.5t-10.5 -30.5h-137l45 138q2 2 2 3v1
l13 37l151 456q1 0 1 1q0 3 1 5l1 1q1 7 -0.5 15.5t-14.5 8.5h-96z" />
    <glyph glyph-name="eight" unicode="8" 
d="M602 700q2 -11 0.5 -23t-3.5 -23l-6 -24l-13 -37l-151 -454q-6 -23 -14 -42q-7 -17 -17.5 -34t-23.5 -25q-43 -30 -86.5 -35t-88.5 -5h-59.5t-62 6t-51 20.5t-25.5 43.5q-2 11 -1 23.5t3 23.5q2 12 6 24l13 38l152 453q6 22 14 42q7 17 16.5 34t23.5 26q44 29 87.5 34
t88.5 5h58.5t62 -6t51 -21t26.5 -44zM305 177l50 150h-147l-62 -188q-3 -9 -3 -16q0 -6 3 -10.5t13 -4.5h94q11 0 19 4.5t13 10.5q5 7 8 16zM457 630q3 8 3 15q0 6 -3.5 11t-12.5 5h-95q-12 0 -19.5 -5t-12.5 -11q-5 -7 -8 -15l-12 -37l-46 -138h148z" />
    <glyph glyph-name="nine" unicode="9" 
d="M133 315q-8 0 -14 1t-11.5 2.5t-10.5 5.5q-8 5 -11 11t-4 11q-1 6 1 12l91 274q6 22 14 42q7 17 16.5 34t23.5 26q45 29 88.5 34t88.5 5h60t62.5 -6t51 -20.5t25.5 -44.5q2 -11 0.5 -23t-3.5 -23l-6 -24l-13 -38l-151 -455q-6 -22 -14 -42q-7 -17 -17.5 -34.5
t-23.5 -25.5q-44 -29 -87.5 -34t-88.5 -5h-60t-62.5 6t-51 20.5t-25.5 43.5q-2 9 -1 19.5t2 20.5h158h70h24q12 0 19.5 4.5t12.5 10.5q5 7 8 16l13 38l46 138h-123h-97zM248 443h148l62 189q3 8 3 15q0 6 -3 11t-12 5h-95q-12 0 -20 -5t-13 -11q-5 -7 -8 -15l-12 -38z" />
    <glyph glyph-name="colon" unicode=":" horiz-adv-x="142" 
d="M170 480h93l-37 -111h-92h-1zM84 162h93l-37 -112h-92h-1z" />
    <glyph glyph-name="semicolon" unicode=";" horiz-adv-x="145" 
d="M90 166h93l-38 -112l-27 -84l-17 84h-48v0zM179 484h93l-38 -111h-92v0z" />
    <glyph glyph-name="equal" unicode="=" horiz-adv-x="578" 
d="M575 399h-442l53 160h443zM494 146h-442l53 160h443z" />
    <glyph glyph-name="question" unicode="?" horiz-adv-x="429" 
d="M139 94l-31 -94h-78h-1l32 94h78zM547 720q1 -16 -2 -35q-2 -10 -5 -19l-10 -29l-69 -204l-218 -1l-44 -127l-41 -118q-29 5 -50 15.5t-25 36.5q-2 8 -1 17.5t3 17.5q2 10 5 19l10 28l65 193h121h72q16 0 25 11q4 5 7 12l11 29l34 100q2 6 2 11t-2 8.5t-10 3.5h-73h-1
h-127q5 14 14 30t20 24q34 23 68 26.5t68 3.5h46t47.5 -4.5t39.5 -15.5t20 -33z" />
    <glyph glyph-name="at" unicode="@" horiz-adv-x="863" 
d="M911 711q3 -23 -2 -45q-3 -11 -6 -23l-12 -36l-109 -315q-5 -23 -13 -42q-7 -17 -17 -33.5t-23 -25.5q-21 -14 -42.5 -22t-43 -11.5t-43 -4t-43.5 -0.5q-20 0 -45.5 0.5t-48.5 2.5q-32 0 -70.5 1.5t-73 7.5t-59 17t-27.5 30q-2 9 -0.5 19.5t3.5 19.5q2 11 5 20l9 30
q16 56 34 104q7 20 15.5 40.5t17 38.5t17 32t16.5 21q15 15 32.5 22.5t36 9.5t37 1.5t36.5 -0.5h49.5t52 -5t42.5 -17.5t21 -36.5q1 -9 0 -19.5t-3 -18.5q-2 -10 -5 -19l-10 -32l-56 -160h27q12 0 19 4.5t12 10.5t8 15l12 36l111 315q2 8 2 14q-1 5 -4 10t-12 5h-23.5
t-27.5 0.5t-23 0.5h-10l-300 3h-18q-11 0 -18 -5t-12 -10q-5 -6 -8 -14l-11 -36l-161 -476q-3 -9 -3 -16q0 -6 3 -10.5t12 -4.5h18h7h619l-42 -104h-620q-22 1 -44 4t-40.5 10t-30.5 19.5t-15 33.5q-2 10 -1 21.5t3 22.5q2 12 5 24l11 33l162 479q5 21 13 39q7 16 16 32.5
t22 25.5q42 27 83.5 31.5t82.5 4.5h2h304h6h58t60.5 -5.5t49.5 -20t24 -43.5zM534 443q3 7 3 13q0 5 -2.5 9t-10.5 4h-77q-10 0 -16.5 -4t-10.5 -9q-5 -6 -8 -13l-11 -30l-39 -121q-3 -8 -3 -14q0 -5 2 -9t10 -4h77q10 0 16 4t11 9q4 6 8 14l9 29z" />
    <glyph glyph-name="A" unicode="A" horiz-adv-x="564" 
d="M681 695q2 -12 0 -26t-4 -26q-3 -14 -7 -27l-14 -41l-191 -576h-152l122 364h-163l-121 -364h-152l206 617q6 25 15 47q8 19 19 37.5t25 27.5q25 17 49.5 26t49 13.5t49 5t48.5 0.5h66.5t69 -6.5t56.5 -23t29 -48.5zM480 497l39 119q3 10 3 18q0 7 -3 12.5t-14 5.5h-104
q-14 0 -22.5 -5.5t-13.5 -12.5q-6 -8 -9 -18l-13 -41l-27 -78h164z" />
    <glyph glyph-name="B" unicode="B" horiz-adv-x="511" 
d="M634 704q2 -11 0.5 -24t-3.5 -24q-3 -13 -6 -25l-12 -37l-32 -95l-20 -65l-20 -60l-79 -233q-6 -22 -15 -41q-8 -17 -18 -33.5t-22 -27.5q-20 -17 -41.5 -25.5t-44 -11.5t-45.5 -3h-45h-235l46 142l13 38l150 452l50 142h182h59.5t61.5 -5.5t50.5 -20t25.5 -43.5z
M329 594l-36 -105h149l47 142q4 9 4 16q0 6 -3 11t-13 5h-95l-29 1zM338 179l63 187h-148l-74 -225l-11 -30h117q12 0 19 4.5t12 10.5t8 15z" />
    <glyph glyph-name="C" unicode="C" horiz-adv-x="471" 
d="M431 134q-2 -6 -6 -19t-11 -27.5t-16 -28t-20 -20.5q-44 -30 -88 -35t-88 -5h-59.5t-61.5 6t-51 20.5t-26 43.5q-2 11 -0.5 24t3.5 24l6 24l12 37l152 453q6 22 14 42q7 17 17 34t24 25q43 30 87 35t87 5h60t62.5 -6t51 -20.5t26.5 -43.5q2 -11 0.5 -23.5t-3.5 -23.5
l-6 -24l-7 -19h-136l6 19q3 8 3 15q0 5 -3.5 10t-13.5 5h-93q-12 0 -19.5 -5t-12.5 -10q-5 -7 -8 -15l-12 -37l-151 -453q-4 -9 -4 -16q0 -6 3 -10.5t13 -4.5h94q17 0 26 8.5t11 15.5h138z" />
    <glyph glyph-name="D" unicode="D" horiz-adv-x="508" 
d="M628 702q2 -11 0.5 -23t-3.5 -23q-3 -12 -6 -25l-12 -37l-151 -454q-6 -23 -14 -42q-7 -17 -17 -34t-23 -25q-44 -30 -87.5 -35t-88.5 -5h-235l45 141l13 37l150 454l50 141h182h58.5t62 -6t51 -20.5t25.5 -43.5zM483 631q3 8 3 15q0 5 -3 10t-12 5h-95l-28 1l-24 -68
l-152 -454l-10 -30h118q11 0 19 4.5t13 10.5t8 15l11 37z" />
    <glyph glyph-name="E" unicode="E" horiz-adv-x="449" 
d="M574 638h-249l-56 -174h189l-45 -136l-190 1l-64 -192h266l-48 -135h-264v0h-134h-1l258 771h134h1v0h251z" />
    <glyph glyph-name="F" unicode="F" horiz-adv-x="492" 
d="M597 636l-250 1l-57 -173h190l-44 -136h-191l-109 -327h-135h-1l257 772h135h1v0h250z" />
    <glyph glyph-name="G" unicode="G" horiz-adv-x="532" 
d="M637 702q2 -11 0.5 -23t-3.5 -23l-6 -24l-12 -37l-17 -50h-136l29 87q3 8 3 15q0 6 -3.5 11t-13.5 5h-93l-29 1l-25 -69l-151 -454l-10 -30h118q12 0 19.5 4.5t12.5 10.5t8 15l13 37l44 134h-46v111h164h55l-93 -282q-7 -22 -15 -42q-8 -17 -17.5 -34.5t-22.5 -25.5
q-44 -29 -87.5 -33.5t-88.5 -4.5q-27 0 -66.5 -0.5t-77.5 -0.5h-91l46 141l12 37l151 454l49 141h181h60t62 -6t50.5 -20.5t26.5 -44.5z" />
    <glyph glyph-name="H" unicode="H" horiz-adv-x="513" 
d="M694 773h1l-256 -772h-135h-1l131 395h-171l-131 -395h-135h-1l257 772h135h1l-80 -242h170l80 242h135z" />
    <glyph glyph-name="I" unicode="I" horiz-adv-x="255" 
d="M392 773l-257 -774h-135h-1l257 774h135h1z" />
    <glyph glyph-name="J" unicode="J" horiz-adv-x="449" 
d="M437 310q-16 -51 -33.5 -105.5t-36.5 -111.5q-4 -11 -8 -21q-7 -16 -22.5 -34t-41 -32t-62 -22t-85.5 -5q-60 9 -99 41q-17 13 -31 32.5t-20.5 46.5t-5 62t16.5 80l119 2q-10 -44 -7.5 -70t12.5 -40t24 -18t28 -4q26 0 38 10.5t15 18.5q4 11 10.5 32t13.5 41q8 24 16 51
l34 106l134 404h141h1z" />
    <glyph glyph-name="K" unicode="K" horiz-adv-x="499" 
d="M502 772h185l-375 -358l172 -414h-143l-108 272l-91 -272h-136h-1l259 777h136h1l-52 -153z" />
    <glyph glyph-name="L" unicode="L" horiz-adv-x="442" 
d="M183 135h224l-46 -136h-224h-135h-1l46 136v0l212 638h135h1z" />
    <glyph glyph-name="M" unicode="M" horiz-adv-x="680" 
d="M785 700q2 -11 0 -23t-4 -23q-3 -12 -6 -25l-12 -37l-156 -462l-45 -132h-140l45 132l14 38l131 390l23 71q4 8 4 15q0 6 -3.5 11t-13.5 5h-49l-170 -504h-137l170 504h-42q-13 0 -20.5 -5t-12.5 -11q-5 -7 -9 -15l-12 -37l-156 -462l-45 -132h-139q12 35 22 63l15 45
l8 24l12 38l156 461q6 23 14 43q7 17 17.5 34t24.5 26q45 30 90 35t90 5h161q27 0 56 -1.5t54 -8.5t43 -21.5t22 -40.5z" />
    <glyph glyph-name="N" unicode="N" horiz-adv-x="567" 
d="M670 617l-12 -42l-192 -576h-151h-40h-1v370l-123 -370h-151l205 618q14 43 25 77q5 15 9.5 29t8 25t6 18t3.5 7h164l-13 -489l160 489h154z" />
    <glyph glyph-name="O" unicode="O" horiz-adv-x="482" 
d="M603 703q2 -11 0 -23t-4 -23q-3 -12 -6 -25l-12 -36l-151 -452q-6 -23 -14 -43q-7 -17 -17 -34.5t-23 -26.5q-22 -14 -44 -22t-44 -11.5t-44 -4t-44 -0.5h-59.5t-62 6t-51 20.5t-25.5 43.5q-2 11 -0.5 23.5t3.5 23.5q3 12 6 25l12 36l152 452q6 22 14 42q7 17 16.5 34.5
t22.5 26.5q45 28 88.5 32.5t88.5 4.5q27 0 59 0.5t61.5 -5t51 -20t26.5 -44.5zM457 632q3 9 3 16q0 6 -3 11t-13 5h-94q-12 0 -19.5 -5t-12.5 -11q-5 -7 -8 -16l-12 -36l-150 -452q-4 -9 -4 -16q0 -6 3 -11t13 -5h93q12 0 20 5t13 11q5 7 9 16l11 36z" />
    <glyph glyph-name="P" unicode="P" horiz-adv-x="545" 
d="M679 693q2 -12 0.5 -26t-3.5 -25q-3 -14 -7 -27l-13 -42q-20 -57 -39 -105q-17 -42 -36 -81t-36 -56q-20 -20 -43 -29.5t-48 -12.5t-50 -2t-49 1h-52t-55 4l-98 -293h-150l205 616l54 156h200h66.5t69 -6.5t56 -23t28.5 -48.5zM414 408q18 0 28.5 10t15.5 17l61 180
q3 9 3 17q0 6 -3.5 11.5t-14.5 5.5h-104q-14 0 -22 -5.5t-13 -11.5q-6 -8 -9 -17l-15 -42l-49 -150q1 -6 5 -10.5t15 -4.5h102z" />
    <glyph glyph-name="Q" unicode="Q" horiz-adv-x="454" 
d="M603 700q2 -11 0.5 -22.5t-3.5 -22.5q-3 -12 -5 -24l-13 -38l-151 -453q-4 -15 -9 -29q-5 -13 -11 -27t-14 -26l60 -114h-145l-31 58q-20 -3 -40 -3.5t-41 -0.5q-27 0 -59.5 0.5t-61.5 6.5t-51 20.5t-26 43.5q-2 11 -0.5 23t3.5 23q3 12 6 25l12 37l152 454q6 23 14 42
q7 17 17 33.5t24 25.5q43 29 86.5 34t89.5 5h58.5t62 -6t51 -20.5t25.5 -44.5zM458 631q3 8 3 15q0 5 -3 10t-12 5h-96q-11 0 -18.5 -5t-12.5 -10q-5 -7 -9 -15l-11 -38l-152 -453q-3 -9 -3 -16q0 -6 3.5 -11t13.5 -5h64l-40 76l125 2z" />
    <glyph glyph-name="R" unicode="R" horiz-adv-x="551" 
d="M649 695q2 -13 0.5 -26.5t-3.5 -25.5q-3 -14 -7 -27l-14 -41q-19 -56 -38 -104q-17 -42 -35.5 -80.5t-35.5 -55.5q-20 -20 -39 -29t-39 -12t-41 -2t-45 1h-9l164 -296h-132l-143 258l-86 -258h-150l207 619l54 156h199h62t59.5 -6.5t47 -22.5t24.5 -48zM489 616q3 9 3 17
q0 6 -3 11.5t-14 5.5h-79q-13 0 -21.5 -5.5t-13.5 -11.5q-6 -8 -9 -17l-13 -41l-50 -148q2 -6 6 -11t13 -5h77q19 0 29 10t14 17z" />
    <glyph glyph-name="S" unicode="S" horiz-adv-x="491" 
d="M467 627q1 3 1.5 9t-1 12t-5 10.5t-10.5 4.5h-96q-12 0 -20 -5t-13 -10q-5 -7 -8 -15l-13 -38l-50 -148q1 -5 4 -9.5t12 -4.5h95h126q6 -1 12 -3q5 -2 10.5 -4t9.5 -6q8 -8 4 -21q-2 -6 -5 -13l-82 -246q-6 -22 -15 -42q-8 -17 -18 -34.5t-23 -25.5q-45 -30 -89.5 -35
t-89.5 -5h-60.5t-63.5 6t-52 21t-26 45q-2 9 -1 21t2.5 24t3.5 21.5t3 12.5h139q-1 -3 -2 -9.5t-0.5 -13t4 -12t11.5 -5.5h97q12 0 19.5 4.5t12.5 10.5q5 7 9 16l12 37l42 123q1 2 1 6q0 5 -5 13q-2 2 -4 3l-4 2q-3 1 -5 1h-213q-7 0 -14 1q-6 1 -12 3t-9 6q-4 3 -4 9t1 13
t4 16l28 84l2 4v2l12 38h1l45 132q6 22 14 42q7 17 17 34t24 26q45 29 89.5 34t89.5 5h60.5t63.5 -6t51.5 -20.5t26.5 -43.5q1 -9 0.5 -20t-2 -22t-3.5 -20.5t-3 -14.5h-138z" />
    <glyph glyph-name="T" unicode="T" horiz-adv-x="444" 
d="M616 773l-48 -135h-150l-212 -640h-135h-1l213 640h-187l48 135h472z" />
    <glyph glyph-name="U" unicode="U" horiz-adv-x="526" 
d="M683 773l-206 -617q-6 -25 -15 -47q-8 -19 -19.5 -37.5t-25.5 -28.5q-49 -33 -97.5 -38.5t-97.5 -5.5h-66t-69 7t-57 23t-28 49q-2 11 -0.5 25t3.5 26q3 14 7 27l13 41l192 576h151l-205 -617q-4 -10 -4 -17t3.5 -12t14.5 -5h105q13 0 22 5t14 12q6 7 9 17l13 41l191 576
h152z" />
    <glyph glyph-name="V" unicode="V" horiz-adv-x="530" 
d="M685 774h1l-374 -774h-5h-127h-1l1 180v594h127v-482l238 482h140z" />
    <glyph glyph-name="W" unicode="W" horiz-adv-x="609" 
d="M779 777l-6.5 -19.5t-15 -43.5t-15.5 -45l-8 -24l-12 -38l-154 -460q-6 -23 -14 -43q-7 -17 -17 -34t-23 -26q-45 -30 -89.5 -35t-89.5 -5h-159q-27 0 -56 1.5t-53.5 8.5t-42 21.5t-21.5 40.5q-2 11 -0.5 23t3.5 23q3 12 6 25l13 38l153 460l45 132h138l-44 -132l-13 -38
l-153 -460q-3 -9 -3 -16q0 -6 3 -10.5t13 -4.5h49l102 301h135l-101 -301h41q12 0 19.5 4.5t12.5 10.5q5 7 8 16l13 38l153 460l45 132h138z" />
    <glyph glyph-name="X" unicode="X" horiz-adv-x="516" 
d="M678 778l-86 -256q-6 -22 -14 -42q-7 -17 -17 -34.5t-23 -25.5q-21 -14 -41 -21.5t-40 -11.5q23 -8 38.5 -21.5t19.5 -38.5q2 -11 0 -23t-4 -23q-3 -12 -6 -25l-12 -38l-74 -218h-137l86 256q3 8 3 15q0 6 -3 11t-12 5h-95q-12 0 -20 -5t-13 -11q-5 -7 -8 -15l-12 -38
l-74 -218h-137l86 256q6 22 14 42q7 17 17 34.5t24 26.5q20 13 40.5 20.5t40.5 12.5q-23 7 -39 21t-19 38q-2 11 -0.5 23t3.5 23q3 12 6 25l12 38l74 218h137l-86 -256q-3 -9 -3 -15t3 -10.5t13 -4.5h95q11 0 19 4.5t13 10.5t8 15l12 38l74 218h137z" />
    <glyph glyph-name="Y" unicode="Y" horiz-adv-x="550" 
d="M711 779q-27 -81 -52 -154q-11 -31 -22 -63.5t-21 -62.5t-19 -55.5t-15 -43.5q-4 -11 -8 -25t-10 -29l-59 -183q-7 -27 -17 -50q-8 -20 -20 -39.5t-27 -30.5q-26 -17 -52 -26.5t-51.5 -13.5t-51.5 -4.5t-52 -0.5h-70.5t-73 6.5t-60 23.5t-30.5 52q-2 13 0 27t4 27
q3 14 7 29l7 22h160l-7 -22q-4 -10 -4 -18q0 -7 4 -12.5t15 -5.5h111q14 0 23.5 5.5t14.5 12.5q6 8 10 18l14 44l13 37h-45h-66t-69 6.5t-57 22.5t-28 49q-2 11 -0.5 25t3.5 26q3 14 7 27l13 42l116 337h151l-129 -379q-4 -10 -4 -17t3.5 -12t14.5 -5h105q13 0 21.5 5
t13.5 12q6 7 9 17l14 42l116 337h150z" />
    <glyph glyph-name="Z" unicode="Z" horiz-adv-x="547" 
d="M710 774l-101 -145l-339 -487h179v-144h-445l28 41l411 590h-177v145h444z" />
    <glyph glyph-name="asciicircum" unicode="^" horiz-adv-x="392" 
d="M214 420h-88l157 330h22h87h1l-1 -113v-217h-82v203z" />
    <glyph glyph-name="underscore" unicode="_" horiz-adv-x="264" 
d="M0 -1l7 20h257l-7 -20h-257z" />
    <glyph glyph-name="a" unicode="a" horiz-adv-x="544" 
d="M439 131q-2 -7 0 -16t16 -9h74l-38 -108q-19 0 -40 -0.5t-42.5 0t-41.5 4t-36 10.5q-32 -10 -63 -11.5t-63 -1.5h-60.5t-63.5 6t-52.5 20.5t-26.5 44.5q-2 11 -0.5 24t3.5 24q3 12 6 25l13 38l67 192q6 23 14 43q7 17 16.5 34.5t23.5 26.5q45 30 90.5 35t90.5 5h57.5
t60.5 -5t51.5 -17.5t30.5 -37.5q1 -2 1.5 -5.5t1.5 -6.5q2 -11 0.5 -23.5t-3.5 -23.5q-3 -12 -6 -25l-7 -19l-19 -61q-1 -1 -1 -3v-1l-13 -39l-38 -112q0 -1 -1 -2q-2 -2 -2 -4v-1zM261 111q14 0 22.5 7t13.5 15q0 1 0.5 2t0.5 2t1 1l12 40l39 111q6 15 11 33q5 15 10.5 33
t11.5 36q0 5 -3.5 9.5t-12.5 4.5h-97q-12 0 -19.5 -5t-12.5 -11q-5 -7 -8 -16l-13 -38l-67 -192q-3 -9 -3 -16q0 -6 3.5 -11t13.5 -5h97z" />
    <glyph glyph-name="b" unicode="b" horiz-adv-x="539" 
d="M572 443q2 -11 0.5 -23.5t-3.5 -23.5q-3 -12 -6 -25l-13 -38l-65 -189q-6 -23 -14 -43q-7 -17 -17.5 -34.5t-23.5 -25.5q-45 -30 -89.5 -35t-89.5 -5h-102h-152l260 775h134h20l-89 -263q12 1 24.5 1h24.5h60t63 -6t52 -20.5t26 -44.5zM425 371q3 8 3 15q0 6 -3.5 11
t-13.5 5h-95q-12 0 -20 -5t-13 -11q-5 -7 -8 -15l-13 -38l-42 -122l-26 -77q-1 -7 1.5 -14t14.5 -7h96q12 0 19.5 4.5t12.5 10.5q5 7 8 16l14 38z" />
    <glyph glyph-name="c" unicode="c" 
d="M438 137q-2 -7 -6.5 -20.5t-11 -28.5t-16 -28.5t-20.5 -21.5q-45 -29 -89.5 -34t-89.5 -5h-61.5t-64 6t-52.5 20.5t-26 44.5q-2 11 -0.5 24t3.5 24q3 12 7 25l12 38l66 192q6 23 14 43q7 17 17.5 34.5t24.5 27.5q45 30 89.5 35t89.5 5h61.5t63.5 -6t52 -21t27 -45
q2 -11 0 -24t-4 -24q-3 -13 -6 -25l-5 -18h-140l6 18q3 8 3 15q0 6 -3 11t-13 5h-96q-13 0 -20.5 -5t-12.5 -11q-5 -7 -9 -15l-12 -38l-66 -192q-4 -9 -4 -16q0 -6 3 -10.5t13 -4.5h97q18 0 27 9t12 16h140z" />
    <glyph glyph-name="d" unicode="d" horiz-adv-x="511" 
d="M672 778l-263 -779h-152q-29 0 -71 0.5t-82 6.5t-69.5 20.5t-33.5 43.5q-2 11 -0.5 24t3.5 24q3 12 6 25l13 38q20 69 41 128q9 25 19 50.5t20.5 48t20.5 40t20 26.5q19 19 41.5 27.5t45.5 11.5t46.5 2.5t46.5 -0.5h50.5t54.5 -3l90 266h132h21zM259 113q12 0 20 4.5
t13 10.5t9 15l11 38l67 191q3 8 3 15q0 5 -3.5 10t-13.5 5h-96q-13 0 -20.5 -5t-12.5 -10q-5 -7 -9 -15l-12 -39l-66 -190q-3 -9 -3 -15t3 -10.5t14 -4.5h96z" />
    <glyph glyph-name="e" unicode="e" horiz-adv-x="483" 
d="M528 446q2 -11 0.5 -23.5t-3.5 -23.5q-3 -12 -6 -25l-13 -39l-48 -139h-61h-230l-18 -52q-3 -9 -3 -15t3 -10.5t14 -4.5h96q11 0 18 3t12 8h145q-3 -9 -7.5 -21t-10.5 -24t-14 -22.5t-17 -16.5q-45 -30 -90 -35t-91 -5h-60.5t-63.5 6t-52.5 21t-26.5 45q-2 11 -0.5 23
t3.5 23q3 12 6 25l13 39l66 191q6 23 14 43q7 17 17 34.5t24 26.5q45 30 90.5 35t90.5 5h60.5t63.5 -6t52 -21t27 -45zM210 323h152l18 51q3 8 3 15q0 6 -3.5 11t-13.5 5h-96q-13 0 -21 -5t-13 -11q-5 -7 -8 -15l-13 -39z" />
    <glyph glyph-name="f" unicode="f" horiz-adv-x="396" 
d="M609 701q2 -11 0.5 -23t-3.5 -23q-3 -12 -6 -25l-6 -19h-138l6 19q3 8 3 15q0 6 -3 11t-12 5h-60q-13 0 -20.5 -5t-12.5 -11q-5 -7 -8 -15l-13 -38l-27 -83h127l-40 -125h-129l-130 -386h-137l59 175l153 457q6 23 14 43q7 17 17 34t24 25q44 30 88 35t89 5h54.5t50.5 -6
t39 -20.5t21 -44.5z" />
    <glyph glyph-name="g" unicode="g" horiz-adv-x="524" 
d="M431 31l-47 -137q-6 -25 -16 -47q-8 -19 -20 -38t-28 -29q-26 -17 -51.5 -26t-51 -13t-51 -4.5t-51.5 -0.5h-69t-72.5 6.5t-59.5 23t-31 49.5q-2 12 0 25.5t4 25.5q3 14 7 28l8 21h158l-7 -21q-3 -10 -3 -17t3 -12t14 -5h110q19 0 29 9t15 17l41 113h-52h-62.5t-66 6
t-54 21.5t-26.5 45.5q-2 11 -0.5 23.5t3.5 23.5l6 26l13 37l68 190q6 23 15 44q8 18 18.5 35.5t24.5 27.5q46 29 92.5 34t94.5 5h104h160zM368 306l27 76q1 7 -1.5 15.5t-16.5 8.5h-99q-14 0 -21.5 -5.5t-12.5 -11.5q-5 -8 -8 -17l-15 -37l-68 -190q-3 -10 -3 -17
q0 -6 3.5 -11t14.5 -5h100q13 0 21 5t13 11q5 7 9 17l13 37z" />
    <glyph glyph-name="h" unicode="h" horiz-adv-x="537" 
d="M582 444q2 -11 0.5 -23t-3.5 -23q-3 -12 -6 -25l-12 -38l-2 -3l-57 -165l-8 -24q-2 -5 -5.5 -15.5t-8.5 -24.5l-35 -102h-134l52 166l2 6l4 10l65 190q3 8 3 15q0 6 -3.5 11t-13.5 5h-95q-13 0 -20.5 -5t-12.5 -11q-5 -7 -8 -15l-13 -38l-57 -164l-59 -162l-2 -8l-153 -1
l262 781h132h20l-87 -263q14 0 27 -0.5t25 -0.5h61t64 -6t52 -21.5t26 -45.5z" />
    <glyph glyph-name="i" unicode="i" horiz-adv-x="260" 
d="M342 636h-121l39 114h120zM175 519h159l-175 -520h-139h-20z" />
    <glyph glyph-name="j" unicode="j" horiz-adv-x="245" 
d="M160 51q-16 -51 -33 -106.5t-37 -113.5q-2 -5 -4 -9.5t-4 -9.5q-13 -29 -30 -46t-41.5 -26t-58.5 -11.5t-81 -2.5q-18 0 -40 1.5t-43 8t-37.5 19.5t-24 36.5t-2.5 59.5t28 89h119q-12 -33 -13.5 -51.5t5 -28t18.5 -12t26 -2.5q15 0 24.5 3.5t15.5 9t8.5 11.5t4.5 10
q5 11 11 32t13 42q7 24 16 51l35 106l134 406h142h1zM207 634l38 113h121l-38 -113h-121z" />
    <glyph glyph-name="k" unicode="k" horiz-adv-x="486" 
d="M516 445q2 -11 0 -23.5t-4 -23.5q-3 -12 -6 -25l-5 -20l-7 -22q-2 -7 -6.5 -20.5t-11 -28.5t-16 -29t-20.5 -21q-26 -17 -51 -25t-51 -11l82 -195h-142l-76 191l-63 -191h-118h-20l263 780h136l-88 -263h61t64 -6t52 -21.5t27 -45.5zM366 373q3 9 3 16q0 6 -3.5 11
t-12.5 5h-61q-12 0 -20 -5l-30 -91q4 -4 12 -4h59q19 0 27.5 9.5t12.5 16.5l6 22z" />
    <glyph glyph-name="l" unicode="l" horiz-adv-x="265" 
d="M187 0q-27 0 -57.5 0.5t-57 7t-45.5 20.5t-23 41q-2 11 -0.5 23t3.5 23l6 24l12 37l149 448q12 38 23 71q9 28 18 53.5t12 33.5h134l-51 -155q-1 -1 -1 -2t-1 -1l-11 -37l-150 -448q-1 -1 -1 -2t-0.5 -1.5t-0.5 -2.5v-1q-2 -7 -0.5 -15t15.5 -8h69z" />
    <glyph glyph-name="m" unicode="m" horiz-adv-x="681" 
d="M714 445q2 -11 0 -24t-4 -24q-3 -13 -6 -25l-13 -39l-68 -199l-46 -136h-144l47 136l13 39l43 125l24 74q4 8 4 15q0 6 -3 11t-13 5h-52l-96 -275h-139l95 275h-43q-13 0 -21 -5t-13 -11q-6 -7 -9 -15l-13 -39l-68 -199l-46 -136h-143q5 12 9 27q4 12 9 28t11 33
q13 39 30 87l68 199q6 24 15 44q8 17 18 34.5t24 27.5q47 30 93 35t92 5h166q27 0 57 -1t55.5 -8.5t44 -22t22.5 -41.5z" />
    <glyph glyph-name="n" unicode="n" horiz-adv-x="552" 
d="M-1 0l126 367q6 24 15 45q8 18 18.5 36t24.5 28q24 16 47.5 24.5t46.5 12.5t46.5 4.5t47.5 0.5h64.5t67 -6t54.5 -22t28 -48q2 -11 0 -24.5t-4 -24.5l-6 -26l-13 -40l-112 -327h-146l124 367q4 9 4 16q0 6 -3.5 11.5t-13.5 5.5h-102q-13 0 -21 -5.5t-13 -11.5
q-6 -7 -9 -16l-12 -40l-112 -327h-147z" />
    <glyph glyph-name="o" unicode="o" horiz-adv-x="494" 
d="M531 447q2 -11 0 -24t-4 -24q-3 -13 -6 -25l-6 -18l-74 -218q-2 -8 -7 -21.5t-11.5 -28.5t-15.5 -28.5t-20 -20.5q-23 -15 -45.5 -23.5t-45 -12t-45.5 -4t-45 -0.5h-61t-64.5 6t-52.5 21t-26 45q-2 11 -0.5 23.5t3.5 23.5q3 12 7 25l12 39l66 192q6 23 15 43
q8 17 17.5 35t23.5 27q45 30 90 35t91 5h61t64.5 -6t52.5 -21t26 -45zM376 356l6 18q3 9 3 16q0 6 -3.5 11t-13.5 5h-97q-12 0 -19.5 -5t-12.5 -11q-5 -7 -8 -16l-13 -38l-67 -193q-3 -9 -3 -16q0 -6 3.5 -10.5t13.5 -4.5h97q17 0 25.5 9t12.5 17z" />
    <glyph glyph-name="p" unicode="p" horiz-adv-x="533" 
d="M566 448q2 -11 -1.5 -29t-8.5 -36q-5 -21 -12 -44q-20 -70 -41 -129q-9 -25 -19 -50.5t-20.5 -47.5t-21 -39.5t-19.5 -26.5q-20 -18 -42 -27.5t-46 -13.5t-48 -4.5t-46 -0.5q-24 0 -51.5 0.5t-53.5 5.5l-88 -269h-134h-19l256 783h153h70t84 -6t72 -21t36 -45zM418 377
q3 8 3 15q0 6 -3 11t-13 5h-97q-12 0 -19.5 -5t-12.5 -11q-5 -7 -8 -15l-13 -38l-66 -190q-3 -9 -3 -15t3 -10.5t14 -4.5h96q12 0 19.5 4.5t12.5 10.5t8 15l13 38z" />
    <glyph glyph-name="q" unicode="q" horiz-adv-x="495" 
d="M353 -120h68l-50 -147h-68h-130h-19l90 265q-12 -1 -24 -1.5t-24 -0.5q-27 0 -59.5 1t-61.5 8t-50 22.5t-25 44.5q-2 11 -0.5 22.5t3.5 22.5q3 12 7 24l11 38l65 185q7 25 16 47q8 19 18.5 38.5t24.5 30.5q20 17 50 25t58 12q33 4 68 4l204 -2h44zM258 125q16 0 24.5 7.5
t12.5 13.5l82 246q1 5 -2 10.5t-13 5.5h-94q-12 0 -19.5 -5t-12.5 -11q-5 -7 -8 -15l-13 -37l-64 -186q-3 -9 -3 -15q0 -5 2.5 -9.5t12.5 -4.5h95z" />
    <glyph glyph-name="r" unicode="r" horiz-adv-x="454" 
d="M272 398q-13 0 -21 -5.5t-13 -11.5q-6 -7 -9 -16l-10 -41l-112 -325h-147l125 366q7 24 16 45q8 18 18.5 36.5t24.5 28.5q24 16 42.5 24.5t34 12t30.5 4.5t31 1q29 1 64.5 1t67.5 -6.5t55 -22.5t28 -48q2 -12 0 -25.5t-4 -24.5l-6 -26l-4 -9h-146l3 9q3 9 3 16
q0 6 -3 11.5t-14 5.5h-54z" />
    <glyph glyph-name="s" unicode="s" horiz-adv-x="428" 
d="M356 388q1 3 1.5 8t-0.5 10.5t-4.5 9.5t-9.5 4h-85q-11 0 -18 -4.5t-11 -9.5q-4 -6 -7 -13l-11 -33l-15 -42q0 -5 3.5 -9t11.5 -4h84h111q6 -1 11 -2q5 -2 9.5 -3.5t7.5 -5.5q4 -4 4.5 -8.5t-0.5 -9.5t-4 -11l-47 -142q-6 -19 -13 -37q-6 -15 -15 -30t-21 -23
q-40 -26 -79 -30.5t-80 -4.5h-53.5t-56 5t-46 18.5t-23.5 39.5q-1 8 -0.5 19t2 21.5t3.5 19t3 11.5h122q-1 -3 -2 -9t0 -12t4 -10.5t11 -4.5h85q11 0 17 4t11 9q4 6 8 14l12 33l8 32q1 2 1 5q0 7 -4 12q-2 2 -3.5 2.5t-3.5 1.5t-3 1h-190q-7 0 -13 1q-13 2 -18 8
q-3 3 -3.5 8.5t0.5 10.5q1 6 4 14l25 75q0 2 0.5 2.5t0.5 1.5t1 2l11 33l10 27q5 19 12 37q6 15 15.5 30t21.5 23q39 26 78.5 30.5t79.5 4.5h54t56.5 -5.5t46 -18.5t23.5 -39q1 -7 0.5 -17t-2 -19.5t-3 -18t-2.5 -12.5h-123z" />
    <glyph glyph-name="t" unicode="t" horiz-adv-x="314" 
d="M189 140q-1 -1 -1 -2t-0.5 -2t-0.5 -3q-2 -7 -0.5 -15t14.5 -8h69l-41 -109q-27 0 -57 0.5t-57 6.5t-46 20.5t-23 41.5q-2 11 -0.5 22.5t3.5 22.5q3 12 6 25l13 36l111 334h-99l34 99h98l3 12q12 37 23 70q9 27 18 52.5t12 33.5h133l-51 -153q-1 -1 -1 -2v-1l-4 -12h96
l-31 -99h-98z" />
    <glyph glyph-name="u" unicode="u" horiz-adv-x="518" 
d="M589 518l-127 -369q-6 -25 -15 -46q-8 -19 -18.5 -37t-24.5 -27q-48 -32 -95.5 -37.5t-95.5 -5.5h-64t-67 6.5t-55.5 22t-27.5 47.5q-2 11 -0.5 25t3.5 25q3 13 7 27l13 39l113 330h147l-126 -369q-3 -10 -3 -17t3 -12t14 -5h102q13 0 21.5 5t13.5 12q6 7 9 17l12 39
l113 330h148z" />
    <glyph glyph-name="v" unicode="v" horiz-adv-x="382" 
d="M347 520h141l-250 -521h-34h-138h-1l1 178v343h130v-321z" />
    <glyph glyph-name="w" unicode="w" horiz-adv-x="638" 
d="M0 75q-2 11 -0.5 23.5t3.5 23.5q3 12 7 25l13 39l66 198l46 134h143l-46 -134l-13 -40l-42 -124l-25 -73q-4 -9 -4 -16q0 -6 3 -11t14 -5h51l95 275h139l-95 -275h44q12 0 20 5t13 11q5 7 9 16l12 39l68 198l46 134h142l-59 -174l-67 -197q-6 -23 -15 -43q-8 -17 -18 -35
t-24 -27q-23 -15 -46 -23.5t-46 -12t-46 -4t-46 -0.5h-28.5h-53t-53.5 -0.5t-29 -0.5q-28 0 -57.5 1.5t-55 9t-43.5 22t-22 41.5z" />
    <glyph glyph-name="x" unicode="x" horiz-adv-x="474" 
d="M543 519l-48 -152q-6 -20 -13 -38q-7 -15 -16 -30.5t-21 -23.5q-8 -6 -17 -10.5l-17 -8.5q21 -14 26 -41q2 -10 0.5 -21t-3.5 -21q-3 -11 -6 -23l-11 -33l-37 -118h-124l49 151q3 12 3 22q0 8 -3 15t-11 7h-87q-11 0 -18 -7t-11 -15q-4 -10 -7 -22l-11 -33l-37 -118h-124
l48 151q6 21 13 39q6 16 15 31.5t21 23.5q19 11 35 17q-11 8 -17 18t-8 25q-2 9 -1 20t3 21q2 11 5 22l11 34l37 118h125l-49 -152q-3 -8 -3 -14q0 -5 3 -9.5t12 -4.5h85q11 0 17.5 4.5t11.5 9.5q5 6 8 14l11 34l38 118h123z" />
    <glyph glyph-name="y" unicode="y" horiz-adv-x="511" 
d="M585 522l-164 -489l-46 -138q-7 -25 -16 -48q-8 -20 -19.5 -39t-26.5 -29q-25 -17 -50 -26t-50 -13t-50 -4.5t-50 -0.5h-67.5t-71 6.5t-58 23.5t-29.5 50q-2 12 -0.5 26t3.5 26q3 14 7 28l7 21h156l-8 -21q-3 -10 -3 -18q0 -7 3.5 -12t14.5 -5h108q17 0 27 9t14 17
l39 116q-12 -1 -24.5 -1h-24.5h-62t-64.5 6t-53 21t-26.5 46q-2 11 -0.5 23t3.5 23q3 12 7 26l12 38l116 338h141l-62 -184l-67 -192q-3 -9 -3 -16q0 -6 3 -11t14 -5h97q12 0 20 5t13 11q5 7 8 16l14 38l42 125l73 213h154z" />
    <glyph glyph-name="z" unicode="z" horiz-adv-x="504" 
d="M109 158l171 247h-202l41 115h406l-265 -390h201l-47 -129h-411z" />
    <glyph glyph-name="Euro" unicode="&#x20ac;" horiz-adv-x="587" 
d="M700 707q2 -11 0.5 -23t-3.5 -23q-3 -12 -6 -25l-6 -19h-137l6 19q3 8 3 15q0 6 -3.5 11t-13.5 5h-94q-12 0 -20 -5t-13 -11q-5 -7 -8 -15l-13 -38l-15 -45h157l-44 -132h-157l-10 -33h154l-44 -130h-154l-39 -117q-3 -9 -3 -16q0 -6 3 -10.5t13 -4.5h95q18 0 26.5 9
t12.5 16h138q-2 -7 -7 -20.5t-11.5 -28t-15.5 -28t-20 -20.5q-45 -30 -88.5 -35t-88.5 -5h-60t-63 6t-51.5 21t-25.5 45q-2 11 -0.5 23t3.5 23q3 12 6 25l13 38l25 79h-71l44 130h71l11 33h-69l44 132h69l28 83q6 22 14 42q7 17 17 34.5t24 26.5q45 29 88.5 34t88.5 5h60
t63 -6t51.5 -20.5t25.5 -44.5z" />
  </font>
</defs>
</svg>
